<?xml version="1.0" encoding="utf-8"?>
<!-- Generator: Adobe Illustrator 25.1.0, SVG Export Plug-In . SVG Version: 6.00 Build 0)  -->
<svg version="1.1" id="Layer_1" xmlns="http://www.w3.org/2000/svg" xmlns:xlink="http://www.w3.org/1999/xlink" x="0px" y="0px"
	 viewBox="0 0 1024 1024" style="enable-background:new 0 0 1024 1024;" xml:space="preserve">
<style type="text/css">
	.st0{clip-path:url(#SVGID_2_);}
	.st1{opacity:0.2;}
	.st2{fill:#FFFFFF;}
	.st3{fill-opacity:0;stroke:#FFFFFF;stroke-width:20;}
	.st4{display:none;opacity:0.2;}
	.st5{display:inline;}
	.st6{fill-opacity:0;stroke:#000000;stroke-width:20;stroke-linecap:round;}
	.st7{display:none;}
	.st8{display:none;opacity:0.5;}
	.st9{fill-opacity:0;stroke:#000000;stroke-width:20;stroke-linecap:round;stroke-dasharray:12,36;}
	.st10{fill:#FF0000;}
	.st11{fill-opacity:0;stroke:#000000;stroke-width:20;stroke-linecap:round;stroke-dasharray:0,36;}
	.st12{fill-opacity:0;stroke:#000000;stroke-width:20;stroke-linecap:round;stroke-dasharray:4,52;}
	.st13{fill-opacity:0;stroke:#9292AC;stroke-width:20;stroke-linecap:round;stroke-dasharray:15,65;stroke-dashoffset:-5;}
</style>
<g>
	<defs>
		<rect id="SVGID_1_" width="1024" height="1024"/>
	</defs>
	<clipPath id="SVGID_2_">
		<use xlink:href="#SVGID_1_"  style="overflow:visible;"/>
	</clipPath>
	<g class="st0">
		<g transform="matrix(1,0,0,1,502,518)" class="st1">
			<g transform="matrix(1,0,0,1,10,-6)">
				<path class="st2" d="M0-200c110.5,0,200,89.5,200,200S110.5,200,0,200S-200,110.5-200,0S-110.5-200,0-200z"/>
				<path class="st3" d="M0,0"/>
			</g>
		</g>
		<g transform="matrix(-1,0,0,1,522,518)" class="st4">
			<g transform="matrix(1,0,0,1,10,-6)" class="st5">
				<path class="st2" d="M83.5-209.4C112.2-209,261.8-106,261.8,4.4s-145.1,191.2-183.4,197c-30.9,0.4,65.1-86.6,65.1-197
					S56.1-210.2,83.5-209.4z"/>
				<path class="st3" d="M0,0"/>
			</g>
		</g>
		
			<g transform="matrix(-0.03489949554204941,0.9993908405303955,-0.9993908405303955,-0.03489949554204941,506.3526611328125,501.79669189453125)">
			<g transform="matrix(1,0,0,1,10,-6)">
				<path class="st2" d="M0,0"/>
				<path class="st6" d="M0-200c110.4,0,200,89.6,200,200c0,110.4-89.6,200-200,200c-110.4,0-200-89.6-200-200S-110.4-200,0-200z"/>
			</g>
		</g>
		
			<g transform="matrix(0.9467353224754333,-0.32201284170150757,0.32201284170150757,0.9467353224754333,504.4647216796875,520.9005126953125)" class="st7">
			<g transform="matrix(1,0,0,1,10,-6)" class="st5">
				<path class="st2" d="M0,0"/>
				<path class="st6" d="M-64-189.5c20.1-6.8,41.6-10.5,64-10.5"/>
			</g>
		</g>
		
			<g transform="matrix(0.9073631167411804,-0.4203477203845978,0.4203477203845978,0.9073631167411804,505.4484558105469,521.6476440429688)" class="st8">
			<g transform="matrix(1,0,0,1,10,-6)" class="st5">
				<path class="st2" d="M0,0"/>
				<path class="st9" d="M-83.4-181.8C-58-193.5-29.8-200,0-200"/>
			</g>
		</g>
		<g transform="matrix(1,0,0,1,526,512)">
			<g transform="matrix(1,0,0,1,0,0)">
				<path class="st10" d="M0,0"/>
				<path class="st6" d="M-105.2,0.2h183"/>
			</g>
		</g>
		
			<g transform="matrix(0.7071067690849304,0.7071067690849304,-0.7071067690849304,0.7071067690849304,548.6494750976562,457.2959289550781)">
			<g transform="matrix(1,0,0,1,0,0)">
				<path class="st10" d="M0,0"/>
				<path class="st6" d="M-17.9,0.2h95.7"/>
			</g>
		</g>
		
			<g transform="matrix(0.7071067690849304,-0.7071067690849304,0.7071067690849304,0.7071067690849304,548.2959594726562,566.8505249023438)">
			<g transform="matrix(1,0,0,1,0,0)">
				<path class="st10" d="M0,0"/>
				<path class="st6" d="M-17.9,0.3h95.7"/>
			</g>
		</g>
		<g transform="matrix(1,0,0,1,512,512)" class="st7">
			<g transform="matrix(1,0,0,1,0,0)" class="st5">
				<path class="st10" d="M0,0"/>
				<path class="st6" d="M92.5-1c0,0-22.6,22.6-53.8,53.8"/>
			</g>
		</g>
		<g transform="matrix(1,0,0,1,512,512)" class="st8">
			<g transform="matrix(1,0,0,1,0,0)" class="st5">
				<path class="st10" d="M0,0"/>
				<path class="st11" d="M57.8,33.7c-11.4,11.4-25,25-39.5,39.5"/>
			</g>
		</g>
		<g transform="matrix(1,0,0,1,512,512)" class="st7">
			<g transform="matrix(1,0,0,1,0,0)" class="st5">
				<path class="st10" d="M0,0"/>
				<path class="st6" d="M92.5,0.5c0,0-14-14-35.4-35.4"/>
			</g>
		</g>
		<g transform="matrix(1,0,0,1,512,512)" class="st8">
			<g transform="matrix(1,0,0,1,0,0)" class="st5">
				<path class="st10" d="M0,0"/>
				<path class="st12" d="M69.6-22.4c-7.4-7.4-16.2-16.2-26.1-26.1"/>
			</g>
		</g>
		
			<g transform="matrix(0.7071067690849304,-0.7071067690849304,0.7071067690849304,0.7071067690849304,521.7959594726562,502.3504943847656)" class="st7">
			<g transform="matrix(1,0,0,1,0,0)" class="st5">
				<path class="st10" d="M0,0"/>
				<path class="st6" d="M-105.2,0.3h183"/>
			</g>
		</g>
		<g transform="matrix(1,0,0,1,512,512)">
			<g transform="matrix(1,0,0,1,0,0)">
				<path class="st10" d="M0,0"/>
				<path class="st6" d="M0,0"/>
			</g>
		</g>
		<g transform="matrix(1,0,0,1,512,512)" class="st8">
			<g transform="matrix(1,0,0,1,0,0)" class="st5">
				<path class="st10" d="M0,0"/>
				<path class="st13" d="M0,0"/>
			</g>
		</g>
		
			<g transform="matrix(0.7071067690849304,0.7071067690849304,-0.7071067690849304,0.7071067690849304,522.1494750976562,521.7959594726562)" class="st7">
			<g transform="matrix(1,0,0,1,0,0)" class="st5">
				<path class="st10" d="M0,0"/>
				<path class="st6" d="M-105.2,0.3h183"/>
			</g>
		</g>
	</g>
</g>
</svg>
