<svg xmlns="http://www.w3.org/2000/svg" viewBox="0 0 1024 1024" width="1024" height="1024" preserveAspectRatio="xMidYMid meet" style="width: 100%; height: 100%; transform: translate3d(0px, 0px, 0px);"><defs><clipPath id="__lottie_element_57"><rect width="1024" height="1024" x="0" y="0"></rect></clipPath></defs><g clip-path="url(#__lottie_element_57)"><g transform="matrix(1,0,0,1,502,518)" opacity="0.2" style="display: block;"><g opacity="1" transform="matrix(1,0,0,1,10,-6)"><path fill="rgb(255,255,255)" fill-opacity="1" d=" M0,-200 C110.45700073242188,-200 200,-110.45700073242188 200,0 C200,110.45700073242188 110.45700073242188,200 0,200 C-110.45700073242188,200 -200,110.45700073242188 -200,0 C-200,-110.45700073242188 -110.45700073242188,-200 0,-200z"></path><path stroke-linecap="butt" stroke-linejoin="miter" fill-opacity="0" stroke-miterlimit="4" stroke="rgb(255,255,255)" stroke-opacity="1" stroke-width="20" d="M0 0"></path></g></g><g transform="matrix(-1,0,0,1,522,518)" opacity="0.2" style="display: none;"><g opacity="1" transform="matrix(1,0,0,1,10,-6)"><path fill="rgb(255,255,255)" fill-opacity="1" d=" M83.48894500732422,-209.43788146972656 C112.18050384521484,-209.0443878173828 261.79400634765625,-106.04299926757812 261.79400634765625,4.414000034332275 C261.79400634765625,114.87100219726562 116.65914154052734,195.64405822753906 78.40701293945312,201.4519805908203 C47.5534553527832,201.8788604736328 143.52725219726562,114.89568328857422 143.52725219726562,4.43868350982666 C143.52725219726562,-106.01831817626953 56.126678466796875,-210.1638641357422 83.48894500732422,-209.43788146972656z"></path><path stroke-linecap="butt" stroke-linejoin="miter" fill-opacity="0" stroke-miterlimit="4" stroke="rgb(255,255,255)" stroke-opacity="1" stroke-width="20" d="M0 0"></path></g></g><g transform="matrix(-0.03489949554204941,0.9993908405303955,-0.9993908405303955,-0.03489949554204941,506.3526611328125,501.79669189453125)" opacity="1" style="display: block;"><g opacity="1" transform="matrix(1,0,0,1,10,-6)"><path fill="rgb(255,255,255)" fill-opacity="1" d="M0 0"></path><path stroke-linecap="round" stroke-linejoin="miter" fill-opacity="0" stroke-miterlimit="4" stroke="rgb(146,146,172)" stroke-opacity="1" stroke-width="20" d=" M0,-200 C110.37999725341797,-200 200,-110.37999725341797 200,0 C200,110.37999725341797 110.37999725341797,200 0,200 C-110.37999725341797,200 -200,110.37999725341797 -200,0 C-200,-110.37999725341797 -110.37999725341797,-200 0,-200z"></path></g></g><g transform="matrix(0.9467353224754333,-0.32201284170150757,0.32201284170150757,0.9467353224754333,504.4647216796875,520.9005126953125)" opacity="1" style="display: none;"><g opacity="1" transform="matrix(1,0,0,1,10,-6)"><path fill="rgb(255,255,255)" fill-opacity="1" d="M0 0"></path><path stroke-linecap="round" stroke-linejoin="miter" fill-opacity="0" stroke-miterlimit="4" stroke="rgb(146,146,172)" stroke-opacity="1" stroke-width="20" d=" M-63.95800018310547,-189.53700256347656 C-43.87200164794922,-196.32200622558594 -22.36199951171875,-200 0,-200"></path></g></g><g transform="matrix(0.9073631167411804,-0.4203477203845978,0.4203477203845978,0.9073631167411804,505.4484558105469,521.6476440429688)" opacity="0.5" style="display: none;"><g opacity="1" transform="matrix(1,0,0,1,10,-6)"><path fill="rgb(255,255,255)" fill-opacity="1" d="M0 0"></path><path stroke-linecap="round" stroke-linejoin="miter" fill-opacity="0" stroke-miterlimit="4" stroke-dasharray=" 12 36" stroke-dashoffset="0" stroke="rgb(146,146,172)" stroke-opacity="1" stroke-width="20" d=" M-83.4489974975586,-181.78399658203125 C-58.04499816894531,-193.4770050048828 -29.777999877929688,-200 0,-200"></path></g></g><g transform="matrix(1,0,0,1,526,512)" opacity="1" style="display: block;"><g opacity="1" transform="matrix(1,0,0,1,0,0)"><path fill="rgb(255,0,0)" fill-opacity="1" d="M0 0"></path><path stroke-linecap="round" stroke-linejoin="miter" fill-opacity="0" stroke-miterlimit="4" stroke="rgb(146,146,172)" stroke-opacity="1" stroke-width="20" d=" M-105.25,0.25 C-105.25,0.25 77.75,0.25 77.75,0.25"></path></g></g><g transform="matrix(0.7071067690849304,0.7071067690849304,-0.7071067690849304,0.7071067690849304,548.6494750976562,457.2959289550781)" opacity="1" style="display: block;"><g opacity="1" transform="matrix(1,0,0,1,0,0)"><path fill="rgb(255,0,0)" fill-opacity="1" d="M0 0"></path><path stroke-linecap="round" stroke-linejoin="miter" fill-opacity="0" stroke-miterlimit="4" stroke="rgb(146,146,172)" stroke-opacity="1" stroke-width="20" d=" M-17.922000885009766,0.25 C-17.922000885009766,0.25 77.75,0.25 77.75,0.25"></path></g></g><g transform="matrix(0.7071067690849304,-0.7071067690849304,0.7071067690849304,0.7071067690849304,548.2959594726562,566.8505249023438)" opacity="1" style="display: block;"><g opacity="1" transform="matrix(1,0,0,1,0,0)"><path fill="rgb(255,0,0)" fill-opacity="1" d="M0 0"></path><path stroke-linecap="round" stroke-linejoin="miter" fill-opacity="0" stroke-miterlimit="4" stroke="rgb(146,146,172)" stroke-opacity="1" stroke-width="20" d=" M-17.922000885009766,0.25 C-17.922000885009766,0.25 77.75,0.25 77.75,0.25"></path></g></g><g transform="matrix(1,0,0,1,512,512)" opacity="1" style="display: none;"><g opacity="1" transform="matrix(1,0,0,1,0,0)"><path fill="rgb(255,0,0)" fill-opacity="1" d="M0 0"></path><path stroke-linecap="round" stroke-linejoin="miter" fill-opacity="0" stroke-miterlimit="4" stroke="rgb(146,146,172)" stroke-opacity="1" stroke-width="20" d=" M92.5,-1 C92.5,-1 69.86299896240234,21.636999130249023 38.74599838256836,52.75400161743164"></path></g></g><g transform="matrix(1,0,0,1,512,512)" opacity="0.5" style="display: none;"><g opacity="1" transform="matrix(1,0,0,1,0,0)"><path fill="rgb(255,0,0)" fill-opacity="1" d="M0 0"></path><path stroke-linecap="round" stroke-linejoin="miter" fill-opacity="0" stroke-miterlimit="4" stroke-dasharray=" 0 36" stroke-dashoffset="0" stroke="rgb(146,146,172)" stroke-opacity="1" stroke-width="20" d=" M57.83100128173828,33.66899871826172 C46.40299987792969,45.09700012207031 32.85499954223633,58.64500045776367 18.297000885009766,73.2030029296875"></path></g></g><g transform="matrix(1,0,0,1,512,512)" opacity="1" style="display: none;"><g opacity="1" transform="matrix(1,0,0,1,0,0)"><path fill="rgb(255,0,0)" fill-opacity="1" d="M0 0"></path><path stroke-linecap="round" stroke-linejoin="miter" fill-opacity="0" stroke-miterlimit="4" stroke="rgb(146,146,172)" stroke-opacity="1" stroke-width="20" d=" M92.5,0.5 C92.5,0.5 78.53700256347656,-13.463000297546387 57.07699966430664,-34.92300033569336"></path></g></g><g transform="matrix(1,0,0,1,512,512)" opacity="0.5" style="display: none;"><g opacity="1" transform="matrix(1,0,0,1,0,0)"><path fill="rgb(255,0,0)" fill-opacity="1" d="M0 0"></path><path stroke-linecap="round" stroke-linejoin="miter" fill-opacity="0" stroke-miterlimit="4" stroke-dasharray=" 4 52" stroke-dashoffset="0" stroke="rgb(146,146,172)" stroke-opacity="1" stroke-width="20" d=" M69.63200378417969,-22.368000030517578 C62.279998779296875,-29.719999313354492 53.45000076293945,-38.54999923706055 43.58100128173828,-48.41899871826172"></path></g></g><g transform="matrix(0.7071067690849304,-0.7071067690849304,0.7071067690849304,0.7071067690849304,521.7959594726562,502.3504943847656)" opacity="1" style="display: none;"><g opacity="1" transform="matrix(1,0,0,1,0,0)"><path fill="rgb(255,0,0)" fill-opacity="1" d="M0 0"></path><path stroke-linecap="round" stroke-linejoin="miter" fill-opacity="0" stroke-miterlimit="4" stroke="rgb(146,146,172)" stroke-opacity="1" stroke-width="20" d=" M-105.25,0.25 C-105.25,0.25 77.75,0.25 77.75,0.25"></path></g></g><g transform="matrix(1,0,0,1,512,512)" opacity="1" style="display: block;"><g opacity="1" transform="matrix(1,0,0,1,0,0)"><path fill="rgb(255,0,0)" fill-opacity="1" d="M0 0"></path><path stroke-linecap="round" stroke-linejoin="miter" fill-opacity="0" stroke-miterlimit="4" stroke="rgb(146,146,172)" stroke-opacity="1" stroke-width="20" d="M0 0"></path></g></g><g transform="matrix(1,0,0,1,512,512)" opacity="0.5" style="display: none;"><g opacity="1" transform="matrix(1,0,0,1,0,0)"><path fill="rgb(255,0,0)" fill-opacity="1" d="M0 0"></path><path stroke-linecap="round" stroke-linejoin="miter" fill-opacity="0" stroke-miterlimit="4" stroke-dasharray=" 15 65" stroke-dashoffset="-5" stroke="rgb(146,146,172)" stroke-opacity="1" stroke-width="20" d="M0 0"></path></g></g><g transform="matrix(0.7071067690849304,0.7071067690849304,-0.7071067690849304,0.7071067690849304,522.1494750976562,521.7959594726562)" opacity="1" style="display: none;"><g opacity="1" transform="matrix(1,0,0,1,0,0)"><path fill="rgb(255,0,0)" fill-opacity="1" d="M0 0"></path><path stroke-linecap="round" stroke-linejoin="miter" fill-opacity="0" stroke-miterlimit="4" stroke="rgb(146,146,172)" stroke-opacity="1" stroke-width="20" d=" M-105.25,0.25 C-105.25,0.25 77.75,0.25 77.75,0.25"></path></g></g></g></svg>