<svg xmlns="http://www.w3.org/2000/svg" viewBox="0 0 1024 1024" width="1024" height="1024" preserveAspectRatio="xMidYMid meet" style="width: 100%; height: 100%; transform: translate3d(0px, 0px, 0px);"><defs><clipPath id="__lottie_element_57"><rect width="1024" height="1024" x="0" y="0"></rect></clipPath></defs><g clip-path="url(#__lottie_element_57)"><g transform="matrix(1,0,0,1,502,518)" opacity="0.2" style="display: none;"><g opacity="1" transform="matrix(1,0,0,1,10,-6)"><path fill="rgb(255,255,255)" fill-opacity="1" d=" M92.3516845703125,-210.43975830078125 C112.36345672607422,-210.00450134277344 261.79400634765625,-106.04299926757812 261.79400634765625,4.414000034332275 C261.79400634765625,114.87100219726562 117.3175277709961,195.18165588378906 86.73027801513672,201.60610961914062 C64.32698822021484,202.07830810546875 176.48020935058594,114.89830017089844 176.48020935058594,4.4413042068481445 C176.48020935058594,-106.01569366455078 73.810302734375,-211.24281311035156 92.3516845703125,-210.43975830078125z"></path><path stroke-linecap="butt" stroke-linejoin="miter" fill-opacity="0" stroke-miterlimit="4" stroke="rgb(255,255,255)" stroke-opacity="1" stroke-width="20" d="M0 0"></path></g></g><g transform="matrix(-1,0,0,1,522,518)" opacity="0.2" style="display: block;"><g opacity="1" transform="matrix(1,0,0,1,10,-6)"><path fill="rgb(255,255,255)" fill-opacity="1" d=" M0,-200 C110.45700073242188,-200 200,-110.45700073242188 200,0 C200,110.45700073242188 110.45700073242188,200 0,200 C-110.45700073242188,200 -200,110.45700073242188 -200,0 C-200,-110.45700073242188 -110.45700073242188,-200 0,-200z"></path><path stroke-linecap="butt" stroke-linejoin="miter" fill-opacity="0" stroke-miterlimit="4" stroke="rgb(255,255,255)" stroke-opacity="1" stroke-width="20" d="M0 0"></path></g></g><g transform="matrix(-0.03489949554204941,0.9993908405303955,-0.9993908405303955,-0.03489949554204941,506.3526611328125,501.79669189453125)" opacity="1" style="display: block;"><g opacity="1" transform="matrix(1,0,0,1,10,-6)"><path fill="rgb(255,255,255)" fill-opacity="1" d="M0 0"></path><path stroke-linecap="round" stroke-linejoin="miter" fill-opacity="0" stroke-miterlimit="4" stroke="rgb(146,146,172)" stroke-opacity="1" stroke-width="20" d="M0 0"></path></g></g><g transform="matrix(-0.27563735842704773,0.9612616896629333,-0.9612616896629333,-0.27563735842704773,508.9888000488281,500.7335510253906)" opacity="1" style="display: block;"><g opacity="1" transform="matrix(1,0,0,1,10,-6)"><path fill="rgb(255,255,255)" fill-opacity="1" d="M0 0"></path><path stroke-linecap="round" stroke-linejoin="miter" fill-opacity="0" stroke-miterlimit="4" stroke="rgb(146,146,172)" stroke-opacity="1" stroke-width="20" d=" M0,-200 C110.37999725341797,-200 200,-110.37999725341797 200,0 C200,110.37999725341797 110.37999725341797,200 0,200 C-110.37999725341797,200 -200,110.37999725341797 -200,0 C-200,-110.37999725341797 -110.37999725341797,-200 0,-200z"></path></g></g><g transform="matrix(-0.27563735842704773,0.9612616896629333,-0.9612616896629333,-0.27563735842704773,508.9888000488281,500.7335510253906)" opacity="0.5" style="display: block;"><g opacity="1" transform="matrix(1,0,0,1,10,-6)"><path fill="rgb(255,255,255)" fill-opacity="1" d="M0 0"></path><path stroke-linecap="round" stroke-linejoin="miter" fill-opacity="0" stroke-miterlimit="4" stroke-dasharray=" 12 36" stroke-dashoffset="0" stroke="rgb(146,146,172)" stroke-opacity="1" stroke-width="20" d=" M8.166999816894531,-199.83599853515625 C114.76699829101562,-195.5449981689453 200,-107.6449966430664 200,0 C200,110.37999725341797 110.37999725341797,200 0,200 C-110.37999725341797,200 -200,110.37999725341797 -200,0 C-200,-110.37999725341797 -110.37999725341797,-200 0,-200"></path></g></g><g transform="matrix(1,0,0,1,517.1199951171875,512)" opacity="1" style="display: none;"><g opacity="1" transform="matrix(1,0,0,1,0,0)"><path fill="rgb(255,0,0)" fill-opacity="1" d="M0 0"></path><path stroke-linecap="round" stroke-linejoin="miter" fill-opacity="0" stroke-miterlimit="4" stroke="rgb(146,146,172)" stroke-opacity="1" stroke-width="20" d=" M-105.25,0.25 C-105.25,0.25 77.75,0.25 77.75,0.25"></path></g></g><g transform="matrix(0.7071067690849304,0.7071067690849304,-0.7071067690849304,0.7071067690849304,539.76953125,457.2959289550781)" opacity="1" style="display: none;"><g opacity="1" transform="matrix(1,0,0,1,0,0)"><path fill="rgb(255,0,0)" fill-opacity="1" d="M0 0"></path><path stroke-linecap="round" stroke-linejoin="miter" fill-opacity="0" stroke-miterlimit="4" stroke="rgb(146,146,172)" stroke-opacity="1" stroke-width="20" d=" M-17.922000885009766,0.25 C-17.922000885009766,0.25 77.75,0.25 77.75,0.25"></path></g></g><g transform="matrix(0.7071067690849304,-0.7071067690849304,0.7071067690849304,0.7071067690849304,539.416015625,566.8505249023438)" opacity="1" style="display: none;"><g opacity="1" transform="matrix(1,0,0,1,0,0)"><path fill="rgb(255,0,0)" fill-opacity="1" d="M0 0"></path><path stroke-linecap="round" stroke-linejoin="miter" fill-opacity="0" stroke-miterlimit="4" stroke="rgb(146,146,172)" stroke-opacity="1" stroke-width="20" d=" M-17.922000885009766,0.25 C-17.922000885009766,0.25 77.75,0.25 77.75,0.25"></path></g></g><g transform="matrix(1,0,0,1,512,512)" opacity="1" style="display: block;"><g opacity="1" transform="matrix(1,0,0,1,0,0)"><path fill="rgb(255,0,0)" fill-opacity="1" d="M0 0"></path><path stroke-linecap="round" stroke-linejoin="miter" fill-opacity="0" stroke-miterlimit="4" stroke="rgb(146,146,172)" stroke-opacity="1" stroke-width="20" d="M0 0"></path></g></g><g transform="matrix(1,0,0,1,512,512)" opacity="0.5" style="display: block;"><g opacity="1" transform="matrix(1,0,0,1,0,0)"><path fill="rgb(255,0,0)" fill-opacity="1" d="M0 0"></path><path stroke-linecap="round" stroke-linejoin="miter" fill-opacity="0" stroke-miterlimit="4" stroke-dasharray=" 0 36" stroke-dashoffset="0" stroke="rgb(146,146,172)" stroke-opacity="1" stroke-width="20" d="M0 0"></path></g></g><g transform="matrix(1,0,0,1,512,512)" opacity="1" style="display: block;"><g opacity="1" transform="matrix(1,0,0,1,0,0)"><path fill="rgb(255,0,0)" fill-opacity="1" d="M0 0"></path><path stroke-linecap="round" stroke-linejoin="miter" fill-opacity="0" stroke-miterlimit="4" stroke="rgb(146,146,172)" stroke-opacity="1" stroke-width="20" d="M0 0"></path></g></g><g transform="matrix(1,0,0,1,512,512)" opacity="0.5" style="display: block;"><g opacity="1" transform="matrix(1,0,0,1,0,0)"><path fill="rgb(255,0,0)" fill-opacity="1" d="M0 0"></path><path stroke-linecap="round" stroke-linejoin="miter" fill-opacity="0" stroke-miterlimit="4" stroke-dasharray=" 4 52" stroke-dashoffset="0" stroke="rgb(146,146,172)" stroke-opacity="1" stroke-width="20" d="M0 0"></path></g></g><g transform="matrix(0.7071067690849304,-0.7071067690849304,0.7071067690849304,0.7071067690849304,521.7959594726562,502.3504943847656)" opacity="1" style="display: block;"><g opacity="1" transform="matrix(1,0,0,1,0,0)"><path fill="rgb(255,0,0)" fill-opacity="1" d="M0 0"></path><path stroke-linecap="round" stroke-linejoin="miter" fill-opacity="0" stroke-miterlimit="4" stroke="rgb(146,146,172)" stroke-opacity="1" stroke-width="20" d=" M-105.25,0.25 C-105.25,0.25 77.75,0.25 77.75,0.25"></path></g></g><g transform="matrix(1,0,0,1,512,512)" opacity="1" style="display: block;"><g opacity="1" transform="matrix(1,0,0,1,0,0)"><path fill="rgb(255,0,0)" fill-opacity="1" d="M0 0"></path><path stroke-linecap="round" stroke-linejoin="miter" fill-opacity="0" stroke-miterlimit="4" stroke="rgb(146,146,172)" stroke-opacity="1" stroke-width="20" d="M0 0"></path></g></g><g transform="matrix(1,0,0,1,512,512)" opacity="0.5" style="display: block;"><g opacity="1" transform="matrix(1,0,0,1,0,0)"><path fill="rgb(255,0,0)" fill-opacity="1" d="M0 0"></path><path stroke-linecap="round" stroke-linejoin="miter" fill-opacity="0" stroke-miterlimit="4" stroke-dasharray=" 15 65" stroke-dashoffset="-5" stroke="rgb(146,146,172)" stroke-opacity="1" stroke-width="20" d="M0 0"></path></g></g><g transform="matrix(0.7071067690849304,0.7071067690849304,-0.7071067690849304,0.7071067690849304,522.1494750976562,521.7959594726562)" opacity="1" style="display: block;"><g opacity="1" transform="matrix(1,0,0,1,0,0)"><path fill="rgb(255,0,0)" fill-opacity="1" d="M0 0"></path><path stroke-linecap="round" stroke-linejoin="miter" fill-opacity="0" stroke-miterlimit="4" stroke="rgb(146,146,172)" stroke-opacity="1" stroke-width="20" d=" M-105.25,0.25 C-105.25,0.25 77.75,0.25 77.75,0.25"></path></g></g></g></svg>