<svg xmlns="http://www.w3.org/2000/svg" viewBox="0 0 1000 144.1"><defs><style>.cls-1{fill:#fff;}</style></defs><g id="Layer_2" data-name="Layer 2"><g id="bottom-banners"><polygon class="cls-1" points="0 6.36 73.92 6.36 73.92 45.91 121.94 4.95 200.56 4.95 138.42 60.03 214.69 136.3 124.29 136.3 73.92 87.34 73.92 136.3 0 136.3 0 6.36 0 6.36"/><path class="cls-1" d="M406.78,68.51c0,79.56-81,71.56-99.81,71.56-18.36,0-99.34,5.65-99.34-68.27C207.63-6.35,279.19.24,309.32.24c24.95,0,97.46-8,97.46,68.27Zm-129,0c0,26.83,6.12,45.67,30.6,45.67s29.19-22.13,29.19-47.08c0-24.49-4.71-41-30.6-41-24.48,0-29.19,16.48-29.19,42.38Z"/><polygon class="cls-1" points="433.62 137.72 433.62 4.01 507.53 4.01 507.53 50.62 555.55 50.62 555.55 4.01 629.47 4.01 629.47 137.72 555.55 137.72 555.55 87.34 506.12 87.34 506.12 137.72 433.62 137.72 433.62 137.72"/><path class="cls-1" d="M661,4V137.72H812.15V95.34c-4.71,4.71-9.42,7.07-15.54,7.07H734.94V4Z"/><path class="cls-1" d="M774.48,56.74V45c-10.36-3.77-13.18-11.3-13.18-20.72,0-5.65,5.18-19.77,24-20.24,17.42-.47,27.31,8.94,27.78,23.54.47,12.71-9.42,23.07-38.61,29.19Z"/><path class="cls-1" d="M983.05,13.42v32C960.92,30.37,913.37,24.25,913.37,44c0,15.53,37.67,10.82,60.74,22.12,17.42,8,25.89,17.42,25.89,32.49,0,11.3-13.18,49-87.1,45.2-57.91-2.83-72-10.36-78.15-14.13V93s18.36,17.42,52.26,19.3c28.72,1.89,28.72-7.06,28.72-10.36,0-3.76-3.3-8-45.2-16.47-38.14-7.54-39.08-31.08-39.08-39.55,0-8,6.59-44.73,89.93-44.73,16.47,0,55.08,3.77,61.67,12.24Z"/></g></g></svg>