<svg xmlns="http://www.w3.org/2000/svg" width="1500.037" height="1724.95" viewBox="0 0 1500.037 1724.95">
  <g id="oculus-logo-stacked-WHT-frFB" transform="translate(18505.999 14923.004)">
    <path id="Path_9397" data-name="Path 9397" d="M3258.6,1000.323,3219.921,1040c27.961,31.744,68.969,47.616,115.1,47.616,61.043,0,107.646-30.344,107.646-79.829,0-46.216-32.621-71.423-84.346-76.558l-28.892-2.8c-23.767-2.335-39.146-10.27-39.146-24.274,0-14.94,15.846-23.342,42.875-23.342,29.357,0,51.257,12.137,65.7,29.877l38.215-39.214c-23.768-28.477-60.114-42.014-101.121-42.014-63.842,0-104.385,31.744-104.385,78.429,0,42.482,30.757,70.491,85.743,75.626l29.36,2.8c23.764,2.335,36.346,10.737,36.346,24.742,0,17.275-19.571,25.21-44.735,25.21-32.155,0-60.115-13.069-79.686-35.944m-145.389,83.1h60.114V833.2h-62.443V976.981c0,32.676-23.3,54.151-53.592,54.151-29.821,0-49.861-22.41-49.861-54.151V833.2h-62.442V986.783c0,61.153,45.667,100.368,97.86,100.368a96.33,96.33,0,0,0,70.364-30.809ZM2875.553,742.163h-62.442v341.253h62.442Zm-194.317,341.256h60.114V833.2h-62.442V976.981c0,32.676-23.3,54.151-53.593,54.151-29.822,0-49.861-22.41-49.861-54.151V833.2h-62.443V986.783c0,61.153,45.668,100.368,97.861,100.368a96.331,96.331,0,0,0,70.365-30.809Zm-253.5-77.5c-12.118,14-29.825,23.81-53.125,23.81-41.475,0-68.035-30.345-68.035-70.959,0-41.549,26.561-71.894,68.035-71.894,23.3,0,41.007,9.805,53.125,24.745l42.871-42.949c-22.367-24.278-55.918-39.682-95.528-39.682-75.493,0-130.946,55.554-130.946,129.312s55.454,129.313,130.946,129.313c39.142,0,73.161-15.4,95.528-39.214Zm-354.157,23.81c-41.475,0-68.5-30.345-68.5-70.959,0-41.549,27.028-71.894,68.5-71.894s68.5,30.345,68.5,71.894c0,40.614-27.028,70.959-68.5,70.959m0,57.886c75.493,0,130.946-55.551,130.946-129.313s-55.453-129.312-130.946-129.312-130.946,55.554-130.946,129.312,55.453,129.313,130.946,129.313" transform="translate(-20448.633 -14570.115)" fill="#fff"/>
    <path id="Path_9398" data-name="Path 9398" d="M3076.7,979.225a162.265,162.265,0,0,1-66.4,25.645c-24.151,3.774-47.551,3.04-71.676,3.04H2446.659c-24.151,0-47.529.734-71.676-3.04a162.266,162.266,0,0,1-66.4-25.645c-39.987-27.928-64.138-73.2-64.125-121.489A146.527,146.527,0,0,1,2308.6,736.252a162.57,162.57,0,0,1,66.4-25.645c24.142-3.777,47.532-3.03,71.67-3.03h491.979c24.126,0,47.529-.747,71.664,3.03a162.525,162.525,0,0,1,66.408,25.655c39.974,27.915,64.138,73.187,64.138,121.475A146.564,146.564,0,0,1,3076.7,979.225m197.727-471.6A455.349,455.349,0,0,0,3095.606,420.1c-37.734-9.061-75.454-12.835-113.935-14.359-28.688-.747-57.346-.747-86.009-.747H2489.706c-28.666,0-57.347,0-86.021.747-38.468,1.523-76.214,5.3-113.925,14.346a455.414,455.414,0,0,0-178.832,87.529,448.356,448.356,0,0,0-.04,700.22,455.477,455.477,0,0,0,178.806,87.542c37.746,9.045,75.454,12.822,113.95,14.342,28.669.75,57.331.75,86.01.75H2895.6c28.668,0,57.356,0,86.022-.75,38.48-1.52,76.21-5.3,113.947-14.342a455.685,455.685,0,0,0,178.819-87.5,448.421,448.421,0,0,0,.042-700.259" transform="translate(-20448.629 -15328.003)" fill="#fff"/>
    <g id="Group_66424" data-name="Group 66424" transform="translate(-18501.811 -13313.121)">
      <path id="Path_9399" data-name="Path 9399" d="M1958.177,1013.681V948.273h-14.255V937.831h14.255v-9.558q0-13.49,6.859-20.546t18.984-7.048a44.485,44.485,0,0,1,12.579,1.6v10.747a40.582,40.582,0,0,0-5.758-1.143,44.269,44.269,0,0,0-5.144-.305q-15.478,0-15.476,15.856v10.4h25.843v10.442H1970.22v65.408Z" transform="translate(-1943.923 -900.676)" fill="#fff"/>
      <path id="Path_9400" data-name="Path 9400" d="M1965.719,989.13V913.28h12.043v13.19a28.562,28.562,0,0,1,9.149-11.017A22.1,22.1,0,0,1,1999.8,911.6a31.908,31.908,0,0,1,6.706.688v12.043q-1.754-.229-3.771-.38c-1.352-.1-2.657-.153-3.927-.153q-8.312,0-13.456,5.07a30.376,30.376,0,0,0-7.587,13.53v46.73Z" transform="translate(-1894.929 -876.125)" fill="#fff"/>
      <path id="Path_9401" data-name="Path 9401" d="M2020.476,990.807q-11.361,0-19.669-5.109a34.4,34.4,0,0,1-12.845-14.024,48.435,48.435,0,0,1,0-40.936,34.389,34.389,0,0,1,12.845-14.027q8.307-5.11,19.669-5.109H2022q11.361,0,19.666,5.109a34.441,34.441,0,0,1,12.848,14.027,48.462,48.462,0,0,1,0,40.936,34.452,34.452,0,0,1-12.848,14.024q-8.307,5.111-19.666,5.109Zm.075-11.13h1.374q11.356,0,17.99-7.775t6.632-20.656q0-12.964-6.632-20.7t-17.99-7.74h-1.374q-11.361,0-17.99,7.74t-6.632,20.7q0,12.881,6.632,20.656t17.99,7.775" transform="translate(-1855.129 -876.123)" fill="#fff"/>
      <path id="Path_9402" data-name="Path 9402" d="M2014.284,989.13V913.28h12.046v14.1a32.83,32.83,0,0,1,10.52-11.549,26.327,26.327,0,0,1,14.865-4.232h1.523q18.9,0,24.316,18.146a36.083,36.083,0,0,1,11.322-13.264,27.281,27.281,0,0,1,16.048-4.882h1.6q12.808,0,19.555,8.577t6.746,24.508V989.13h-12.043V946.44q0-23.633-17.3-23.631H2102.1a19.97,19.97,0,0,0-14.027,5.414,31.235,31.235,0,0,0-8.535,13.719V989.13H2067.5V946.44q0-23.633-17.23-23.631h-1.449a19.826,19.826,0,0,0-13.988,5.414,31.378,31.378,0,0,0-8.5,13.719V989.13Z" transform="translate(-1785.762 -876.125)" fill="#fff"/>
      <path id="Path_9403" data-name="Path 9403" d="M2163.949,902.9v14.579a1.5,1.5,0,0,1-1.589,1.585h-62.605v29.8h51.671a1.5,1.5,0,0,1,1.585,1.585v14.583a1.5,1.5,0,0,1-1.585,1.585h-51.671v44.06a1.5,1.5,0,0,1-1.581,1.585h-15.691a1.5,1.5,0,0,1-1.588-1.585V902.9a1.5,1.5,0,0,1,1.588-1.585h79.877a1.5,1.5,0,0,1,1.589,1.585" transform="translate(-1636.031 -899.251)" fill="#fff"/>
      <path id="Path_9404" data-name="Path 9404" d="M2220.882,1012.256h-17.275a1.732,1.732,0,0,1-1.826-1.426c-2.3-9.113-5.067-18.7-8.236-28.37h-53.019c-3.165,9.669-5.939,19.256-8.161,28.37a1.723,1.723,0,0,1-1.822,1.426H2113.9c-1.107,0-1.741-.633-1.426-1.741,9.983-35.346,25.2-74.333,40.575-107.14a3.03,3.03,0,0,1,3.089-2.062h22.508a3.034,3.034,0,0,1,3.09,2.062,725.366,725.366,0,0,1,40.574,107.14c.312,1.108-.319,1.741-1.429,1.741m-33.2-46.912c-5.784-16.009-12.2-32.014-18.782-46.6h-3.722c-6.577,14.583-13.075,30.588-18.86,46.6Z" transform="translate(-1565.226 -899.251)" fill="#fff"/>
      <path id="Path_9405" data-name="Path 9405" d="M2154.532,959.162c0-34.391,22.664-58.483,55-58.483h2.377c20.286,0,35.976,10.3,44.3,25.2a1.4,1.4,0,0,1-.555,2.222l-13.946,6.892a1.93,1.93,0,0,1-2.775-.715c-5.863-10.143-14.661-15.531-27.655-15.531h-2.377c-20.367,0-34.394,16.168-34.394,39.623,0,23.534,13.79,39.305,34.394,39.305h2.377c13.313,0,21.078-4.518,27.022-11.413a2.017,2.017,0,0,1,2.614-.555l14.343,6.976a1.315,1.315,0,0,1,.792,1.108,2.074,2.074,0,0,1-.474,1.189c-8.8,12.839-24.645,20.763-43.979,20.763h-2.381c-32.885,0-54.677-22.585-54.677-56.581" transform="translate(-1470.509 -900.676)" fill="#fff"/>
      <path id="Path_9406" data-name="Path 9406" d="M2284.483,996.091v14.583a1.5,1.5,0,0,1-1.584,1.585h-83.207a1.5,1.5,0,0,1-1.586-1.585V902.9a1.5,1.5,0,0,1,1.586-1.588h81.78a1.5,1.5,0,0,1,1.585,1.588v14.58a1.5,1.5,0,0,1-1.585,1.585h-64.5V947.91h52.458a1.5,1.5,0,0,1,1.585,1.585v14.424a1.5,1.5,0,0,1-1.585,1.585h-52.458v29H2282.9a1.5,1.5,0,0,1,1.584,1.585" transform="translate(-1372.558 -899.251)" fill="#fff"/>
      <path id="Path_9407" data-name="Path 9407" d="M2336.164,981.823c0,19.416-14.9,30.432-41.205,30.432h-54.521a1.5,1.5,0,0,1-1.584-1.585V902.9a1.5,1.5,0,0,1,1.584-1.585h49.688c25.593,0,39.543,10.143,39.543,28.685,0,12.206-6.184,20.208-18.7,23.933,17.591,3.722,25.2,14.261,25.2,27.892m-46.433-63.235h-32.018v29.8h32.018c14.342,0,20.919-4.677,20.919-14.9s-6.577-14.9-20.919-14.9m27.1,61.572c0-10.3-6.814-14.979-21.793-14.979h-37.325v29.8h37.325c15.216,0,21.793-4.436,21.793-14.816" transform="translate(-1280.971 -899.251)" fill="#fff"/>
      <path id="Path_9408" data-name="Path 9408" d="M2279.038,958.213c0-33.44,22.185-57.535,57.054-57.535h2.377c34.869,0,57.055,24.1,57.055,57.535s-22.186,57.532-57.055,57.532h-2.377c-34.869,0-57.054-24.089-57.054-57.532m59.431,39.461c22.742,0,37.088-15.609,37.088-39.461s-14.346-39.464-37.088-39.464h-2.377c-22.744,0-37.087,15.609-37.087,39.464s14.343,39.461,37.087,39.461Z" transform="translate(-1190.64 -900.678)" fill="#fff"/>
      <path id="Path_9409" data-name="Path 9409" d="M2324.81,958.213c0-33.44,22.186-57.535,57.055-57.535h2.377c34.869,0,57.058,24.1,57.058,57.535s-22.189,57.532-57.058,57.532h-2.377c-34.869,0-57.055-24.089-57.055-57.532m59.432,39.461c22.745,0,37.087-15.609,37.087-39.461s-14.342-39.464-37.087-39.464h-2.377c-22.744,0-37.087,15.609-37.087,39.464s14.343,39.461,37.087,39.461Z" transform="translate(-1087.752 -900.678)" fill="#fff"/>
      <path id="Path_9410" data-name="Path 9410" d="M2469.9,1012.256h-20.445a3,3,0,0,1-2.773-1.348,433.731,433.731,0,0,0-45.723-46.041h-9.195v45.8a1.5,1.5,0,0,1-1.585,1.585h-15.694a1.5,1.5,0,0,1-1.584-1.585V902.9a1.5,1.5,0,0,1,1.584-1.585h15.694a1.5,1.5,0,0,1,1.585,1.585V946.64h9.351a340.5,340.5,0,0,0,41.368-44.138,2.535,2.535,0,0,1,2.374-1.189h19.338c.952,0,1.426.474,1.426,1.111a1.957,1.957,0,0,1-.556,1.185,394.42,394.42,0,0,1-49.527,51.511,477.406,477.406,0,0,1,55.233,55.155c.874,1.03.4,1.981-.871,1.981" transform="translate(-979.659 -899.251)" fill="#fff"/>
    </g>
  </g>
</svg>
