<svg xmlns="http://www.w3.org/2000/svg" xmlns:xlink="http://www.w3.org/1999/xlink" viewBox="0 0 56.98 42.64"><defs><style>.cls-1{fill:url(#linear-gradient);}</style><linearGradient id="linear-gradient" x1="3.67" y1="-3.5" x2="52.3" y2="45.13" gradientUnits="userSpaceOnUse"><stop offset="0" stop-color="#1ca5fb"/><stop offset="1" stop-color="#7f25e5"/></linearGradient></defs><g id="Layer_2" data-name="Layer 2"><g id="Layer_1-2" data-name="Layer 1"><path class="cls-1" d="M23.07,9.73a1,1,0,0,0-1.56.83V32.08a1,1,0,0,0,.58.9,1,1,0,0,0,.42.1,1,1,0,0,0,.64-.24l14.35-12a1,1,0,0,0-.09-1.6Zm.44,20.21V12.43l11.68,7.78ZM55,0H2A2,2,0,0,0,0,2V40.64a2,2,0,0,0,2,2H55a2,2,0,0,0,2-2V2A2,2,0,0,0,55,0ZM2,40.64V2H55V40.64ZM10.56,7.17H8.17a1,1,0,0,0-1,1v2.39a1,1,0,0,0,1,1h2.39a1,1,0,0,0,1-1V8.17A1,1,0,0,0,10.56,7.17Zm-1,2.39H9.17V9.17h.39Zm1,9.56H8.17a1,1,0,0,0-1,1v2.39a1,1,0,0,0,1,1h2.39a1,1,0,0,0,1-1V20.12A1,1,0,0,0,10.56,19.12Zm-1,2.39H9.17v-.39h.39Zm1,9.57H8.17a1,1,0,0,0-1,1v2.39a1,1,0,0,0,1,1h2.39a1,1,0,0,0,1-1V32.08A1,1,0,0,0,10.56,31.08Zm-1,2.39H9.17v-.39h.39ZM48.81,7.17H46.42a1,1,0,0,0-1,1v2.39a1,1,0,0,0,1,1h2.39a1,1,0,0,0,1-1V8.17A1,1,0,0,0,48.81,7.17Zm-1,2.39h-.39V9.17h.39Zm1,9.56H46.42a1,1,0,0,0-1,1v2.39a1,1,0,0,0,1,1h2.39a1,1,0,0,0,1-1V20.12A1,1,0,0,0,48.81,19.12Zm-1,2.39h-.39v-.39h.39Zm1,9.57H46.42a1,1,0,0,0-1,1v2.39a1,1,0,0,0,1,1h2.39a1,1,0,0,0,1-1V32.08A1,1,0,0,0,48.81,31.08Zm-1,2.39h-.39v-.39h.39Z"/></g></g></svg>