<svg xmlns="http://www.w3.org/2000/svg" xmlns:xlink="http://www.w3.org/1999/xlink" viewBox="0 0 1471.55 489.78"><defs><style>.cls-1,.cls-2{fill-rule:evenodd;}.cls-1{fill:url(#GradientFill_1);}.cls-2{fill:#fff;}</style><linearGradient id="GradientFill_1" x1="396.63" y1="213.83" x2="115.88" y2="-102.76" gradientUnits="userSpaceOnUse"><stop offset="0" stop-color="#26b3e8"/><stop offset="1" stop-color="#ea4097"/></linearGradient></defs><g id="Layer_2" data-name="Layer 2"><g id="Layer_17" data-name="Layer 17"><path class="cls-1" d="M327.76,223.61,456.86,0h108.7L382.11,317.73l-54.35-94.12Zm9.36,172-129-223.4H99.45L282.78,489.78l54.34-94.13ZM54.47,94.33h258L366.89,0H0Z"/><path class="cls-2" d="M818.09,147.24l-72,178-71.95-178H658.07l80,195.3H754.2l80-195.3Zm637.35,195.3-72-178-72,178h-16.11l80-195.3h16.11l80,195.3Zm-379.33-92.79h66.68c26.11,0,53.62,10.84,53.89,41.12,0,30.83-31.39,36.67-55.84,36.67h-64.73V249.75Zm0-89.73h64.73c24.17,0,49.73,12,49.73,40.42,0,27.92-24.44,35.14-47.78,35.14h-66.68V160Zm64.73-12.78h-79.73V342h79.73c33.34,0,70.57-10.83,70.57-50.84,0-22.5-13.89-42.22-38.34-48.89,19.45-6.11,31.67-21.72,31.67-41.81,0-37.09-31.11-53.2-63.9-53.2ZM946.55,342V147.24H931.83V342Z"/></g></g></svg>