<svg xmlns="http://www.w3.org/2000/svg" xmlns:xlink="http://www.w3.org/1999/xlink" viewBox="0 0 71.25 66.75"><defs><style>.cls-1{fill:url(#linear-gradient);}</style><linearGradient id="linear-gradient" x1="10.96" y1="7.21" x2="61.21" y2="57.46" gradientUnits="userSpaceOnUse"><stop offset="0" stop-color="#1ca5fb"/><stop offset="1" stop-color="#7f25e5"/></linearGradient></defs><g id="Layer_2" data-name="Layer 2"><g id="Layer_1-2" data-name="Layer 1"><path class="cls-1" d="M36.75,28.5a4.5,4.5,0,1,0,4.5,4.5A4.51,4.51,0,0,0,36.75,28.5Zm0,7.5a3,3,0,1,1,3-3A3,3,0,0,1,36.75,36Zm27.75.75a6.74,6.74,0,0,0-5.93,3.54l-11.87-4a10.43,10.43,0,0,0-1.76-9.89l9.47-10.58a6.69,6.69,0,0,0,4.09,1.39,6.76,6.76,0,1,0-5.18-2.43L43.91,25.34a10.44,10.44,0,0,0-11.33-2l-5-10.93a6.82,6.82,0,1,0-1.35.66l5,11a10.52,10.52,0,0,0-3.92,4.31L21,26.86c0-.2,0-.41,0-.61a6.76,6.76,0,1,0-.33,2.08l6.09,1.45a10.36,10.36,0,0,0,0,6.54l-14.58,7A6.56,6.56,0,1,0,13,44.62l14.41-6.91a10.5,10.5,0,0,0,9,5.77l-1,9.78h-.1a6.8,6.8,0,1,0,1.59.2l1-10a10.51,10.51,0,0,0,8.28-5.72l11.89,4a6.46,6.46,0,0,0-.26,1.82,6.75,6.75,0,1,0,6.75-6.75Zm-45.75-30A5.25,5.25,0,1,1,24,12,5.26,5.26,0,0,1,18.75,6.75ZM14.25,31.5a5.25,5.25,0,1,1,5.25-5.25A5.26,5.26,0,0,1,14.25,31.5Zm-7.5,21A5.25,5.25,0,1,1,12,47.25,5.26,5.26,0,0,1,6.75,52.5ZM40.5,60a5.25,5.25,0,1,1-5.25-5.25A5.26,5.26,0,0,1,40.5,60Zm18-54.75a5.25,5.25,0,1,1-5.25,5.25A5.26,5.26,0,0,1,58.5,5.25ZM36.75,42a9,9,0,1,1,9-9A9,9,0,0,1,36.75,42ZM64.5,48.75a5.25,5.25,0,1,1,5.25-5.25A5.26,5.26,0,0,1,64.5,48.75Zm0-8.25a3,3,0,1,0,3,3A3,3,0,0,0,64.5,40.5Zm0,4.5A1.5,1.5,0,1,1,66,43.5,1.5,1.5,0,0,1,64.5,45Zm-6-31.5a3,3,0,1,0-3-3A3,3,0,0,0,58.5,13.5Zm0-4.5A1.5,1.5,0,1,1,57,10.5,1.5,1.5,0,0,1,58.5,9ZM32.25,60a3,3,0,1,0,3-3A3,3,0,0,0,32.25,60Zm4.5,0a1.5,1.5,0,1,1-1.5-1.5A1.5,1.5,0,0,1,36.75,60Zm-30-15.75a3,3,0,1,0,3,3A3,3,0,0,0,6.75,44.25Zm0,4.5a1.5,1.5,0,1,1,1.5-1.5A1.5,1.5,0,0,1,6.75,48.75Zm7.5-25.5a3,3,0,1,0,3,3A3,3,0,0,0,14.25,23.25Zm0,4.5a1.5,1.5,0,1,1,1.5-1.5A1.5,1.5,0,0,1,14.25,27.75ZM24,3.75a3,3,0,1,0,3,3A3,3,0,0,0,24,3.75Zm0,4.5a1.5,1.5,0,1,1,1.5-1.5A1.5,1.5,0,0,1,24,8.25Z"/></g></g></svg>