<svg xmlns="http://www.w3.org/2000/svg" xmlns:xlink="http://www.w3.org/1999/xlink" viewBox="0 0 70.54 70.2"><defs><style>.cls-1{fill:url(#linear-gradient);}</style><linearGradient id="linear-gradient" x1="14.35" y1="15.38" x2="63.79" y2="64.82" gradientUnits="userSpaceOnUse"><stop offset="0" stop-color="#1ca5fb"/><stop offset="1" stop-color="#7f25e5"/></linearGradient></defs><g id="Layer_2" data-name="Layer 2"><g id="Layer_1-2" data-name="Layer 1"><path id="touchless" class="cls-1" d="M69,28.2l-1.64-1.1a5.84,5.84,0,0,0-7.74,1.12l-6.94,8.33v-26A4.69,4.69,0,0,0,48,5.85a4.5,4.5,0,0,0-2.34.66V4.68a4.68,4.68,0,0,0-9.36,0V6.51a4.52,4.52,0,0,0-2.34-.66,4.68,4.68,0,0,0-4.68,4.68v1.83a4.52,4.52,0,0,0-2.34-.66,4.68,4.68,0,0,0-4.68,4.67h0V21a16.37,16.37,0,1,0,1.86,29.73c.08.15.17.29.27.46.24.4.5.82.78,1.32l1.77,2.83V58.5H25.74a1.18,1.18,0,0,0-1.16,1l-1.17,9.36a1.15,1.15,0,0,0,.28.92,1.13,1.13,0,0,0,.88.39H55a1.13,1.13,0,0,0,.88-.39,1.18,1.18,0,0,0,.28-.92L55,59.53a1.18,1.18,0,0,0-1.16-1H52.65V55.39L69.94,33.05,70,33A3.49,3.49,0,0,0,69,28.2ZM24.57,16.38a2.34,2.34,0,0,1,4.68,0v9.79a16.59,16.59,0,0,0-4.68-4.07ZM16.38,50.31a14,14,0,1,1,14-14A14,14,0,0,1,16.38,50.31ZM52.79,60.84l.88,7H25.89l.88-7ZM68.05,31.69,50.55,54.28a1.13,1.13,0,0,0-.24.71V58.5H29.25V55a1.15,1.15,0,0,0-.18-.62L27.15,51.3,26.36,50c-.11-.18-.2-.35-.29-.51a16.32,16.32,0,0,0,5.52-19.24V10.53a2.34,2.34,0,0,1,4.68,0v23.4h2.34V4.68a2.34,2.34,0,1,1,4.68,0V33.93h2.34V10.53a2.34,2.34,0,0,1,4.68,0V38.61H48a7,7,0,0,0-7,7h2.34A4.68,4.68,0,0,1,48,41h3.51a1.16,1.16,0,0,0,.89-.43h0l9-10.81A3.5,3.5,0,0,1,66,29.05l1.64,1.09A1.18,1.18,0,0,1,68.05,31.69ZM23,36.27,26.31,33a1.18,1.18,0,0,0,0-1.65l-5-5a1.2,1.2,0,0,0-1.65,0l-3.31,3.31-3.31-3.31a1.2,1.2,0,0,0-1.65,0l-5,5a1.18,1.18,0,0,0,0,1.65l3.31,3.31L6.44,39.58a1.18,1.18,0,0,0,0,1.65l5,5a1.22,1.22,0,0,0,1.65,0l3.31-3.32,3.31,3.32a1.21,1.21,0,0,0,.83.33,1.18,1.18,0,0,0,.82-.33l5-5a1.18,1.18,0,0,0,0-1.65Zm-2.48,7.44-3.31-3.3a1.16,1.16,0,0,0-1.64,0l0,0-3.31,3.3-3.3-3.3,3.3-3.31a1.17,1.17,0,0,0,0-1.64l0,0-3.3-3.31,3.3-3.3,3.31,3.3a1.21,1.21,0,0,0,1.66,0l3.31-3.3,3.3,3.3-3.3,3.31a1.16,1.16,0,0,0,0,1.64l0,0,3.3,3.31Z"/></g></g></svg>