<svg xmlns="http://www.w3.org/2000/svg" xmlns:xlink="http://www.w3.org/1999/xlink" viewBox="0 0 70.5 70.5"><defs><style>.cls-1{fill:url(#linear-gradient);}</style><linearGradient id="linear-gradient" x1="9.56" y1="9.56" x2="59.61" y2="59.61" gradientUnits="userSpaceOnUse"><stop offset="0" stop-color="#1ca5fb"/><stop offset="1" stop-color="#7f25e5"/></linearGradient></defs><g id="Layer_2" data-name="Layer 2"><g id="Layer_1-2" data-name="Layer 1"><path class="cls-1" d="M18.75,54h33V45h-33Zm1.5-7.5h30v6h-30ZM50.8,20.76,37,34.58a1.85,1.85,0,0,1-2.4,2.4L33,38.56,31.94,37.5l1.58-1.58a1.85,1.85,0,0,1,2.4-2.4L49.74,19.7ZM35.25,0A35.25,35.25,0,1,0,70.5,35.25,35.29,35.29,0,0,0,35.25,0Zm0,69A33.75,33.75,0,1,1,69,35.25,33.79,33.79,0,0,1,35.25,69Zm0-63.75a30,30,0,1,0,30,30A30,30,0,0,0,35.25,5.25Zm0,58.5a28.5,28.5,0,1,1,28.5-28.5A28.54,28.54,0,0,1,35.25,63.75ZM12,36H9V34.5h3Zm49.5-1.5V36h-3V34.5ZM13,41.69l.47,1.43-3.31,1.07L9.7,42.76ZM57,27.38l3.31-1.07.46,1.43-3.3,1.07Zm.2-7.17-2.81,2L53.54,21l2.81-2ZM49.46,17l-1.21-.88,2-2.81,1.21.88Zm-6.34-3.49L41.69,13l1.07-3.3,1.43.46ZM36,12H34.5V9H36Zm-8.62,1.47-1.07-3.31,1.43-.46L28.81,13ZM21,17l-2-2.81,1.21-.88,2,2.81Zm-5,5.29-2.81-2L14.15,19,17,21ZM57.5,41.69l3.3,1.07-.46,1.43L57,43.12ZM10.16,26.31l3.31,1.07L13,28.81,9.7,27.74ZM16,35.25a19.33,19.33,0,0,0,1,6.22L15.59,42a21,21,0,0,1-1.12-6.71,20.76,20.76,0,0,1,33-16.81l-.88,1.22a19.22,19.22,0,0,0-17.17-2.78A19.3,19.3,0,0,0,16.88,29.4,19.11,19.11,0,0,0,16,35.25ZM30.62,21.17a14.87,14.87,0,0,0-9.47,9.5l-1.43-.47a16.33,16.33,0,0,1,24.5-8.59l-.82,1.25A14.86,14.86,0,0,0,30.62,21.17Zm1.24,4.28L31.37,24a11.92,11.92,0,0,1,9.56.79l-.72,1.31A10.37,10.37,0,0,0,31.86,25.45Z"/></g></g></svg>