<svg id="Logo" xmlns="http://www.w3.org/2000/svg" viewBox="0 0 657.18 145.58"><defs><style>.cls-1{fill:#d52b1e;}</style></defs><polygon class="cls-1" points="642.66 0 606.85 76.81 593.31 47.66 578.68 47.66 600.9 95.32 612.73 95.32 657.18 0 642.66 0"/><path d="M488.66,142.61h28.93V89.76c0-12.06,7-20.59,17.43-20.59,10,0,15.21,7,15.21,17.07v56.37h28.93V80.67c0-21-12.61-35.79-33-35.79-13,0-22.07,5.56-28.93,15.76h-.56v-13h-28ZM431.91,45.06c-30.23,0-50.44,21.7-50.44,50.26,0,28.38,20.21,50.26,50.44,50.26s50.44-21.88,50.44-50.26C482.35,66.76,462.14,45.06,431.91,45.06Zm-.18,79.19c-13.73,0-21-11.5-21-28.93,0-17.62,7.23-28.93,21-28.93s21.32,11.31,21.32,28.93C453.05,112.75,445.45,124.25,431.73,124.25Zm-132.6,18.36h81.23V119.8h-46v-.56l43.95-49.33V47.66H299.13V70.47h44.51V71l-44.51,49.7Zm-37.09,0h29.11v-95H262Zm-67.51,0h28.93V99c0-19.84,11.87-28.56,30-26.15h.55v-25a16.36,16.36,0,0,0-5.93-.74c-11.31,0-18.92,5.19-25.41,16.31h-.55V47.66H194.53Zm-53.22-18.17c-12.8,0-20.58-8.35-22.07-21.14h68.43c.19-20.4-5.19-36.72-16.5-46.92-8-7.42-18.55-11.5-31.9-11.5-28.56,0-48.4,21.7-48.4,50.07,0,28.56,18.92,50.44,50.26,50.44,11.87,0,21.32-3.15,29.11-8.53,8.35-5.75,14.28-14.09,15.95-22.44H158.37C155.59,120.73,149.84,124.44,141.31,124.44Zm-1.48-58.79c10.2,0,17.24,7.6,18.36,18.73H119.43C121.65,73.07,127.77,65.65,139.83,65.65ZM33,142.61H63.42l33-95H67.32l-18.55,61H48.4l-18.54-61H0ZM262,13.91h29.11V39.69H262Z"/></svg>