<svg xmlns="http://www.w3.org/2000/svg" width="319.091" height="77.066" viewBox="0 0 319.091 77.066">
  <g id="Group_66419" data-name="Group 66419" transform="translate(-18 -81.945)">
    <g id="Group_66417" data-name="Group 66417" transform="translate(18 81.946)">
      <g id="Group_66416" data-name="Group 66416">
        <g id="Group_66415" data-name="Group 66415">
          <g id="Group_66414" data-name="Group 66414">
            <path id="Path_9383" data-name="Path 9383" d="M135.88,112.942c0-7.614-3.254-14.311-14.24-14.311a26.024,26.024,0,0,0-12.563,3l1.787,6.119a18.4,18.4,0,0,1,9.161-2.576c5.575-.013,6.487,3.158,6.487,5.189v.48c-12.153-.02-19.83,4.187-19.83,12.76,0,5.234,3.913,10.142,10.709,10.142a12.175,12.175,0,0,0,9.775-4.34h.209s1.387,5.8,9.033,3.584a49.661,49.661,0,0,1-.529-8.094m-9.071-3.905a6.513,6.513,0,0,1-.226,1.818,6.371,6.371,0,0,1-6.13,4.3c-2.51,0-4.514-1.43-4.514-4.447,0-4.615,5.084-5.89,10.869-5.859Z" transform="translate(53.436 -68.506)" fill="#fff"/>
            <path id="Path_9384" data-name="Path 9384" d="M18,92.89s7.937,32.532,9.206,37.815c1.477,6.164,4.144,8.43,11.828,6.9l4.956-20.17c1.258-5.014,2.1-8.583,2.907-13.68h.143a133.253,133.253,0,0,0,2.41,13.695s2.017,9.156,3.051,13.968,3.92,7.838,11.445,6.188L75.762,92.89H66.224L62.19,112.222c-1.087,5.628-2.066,10.026-2.827,15.177h-.135c-.69-5.1-1.564-9.322-2.669-14.805l-4.2-19.7H42.42L37.931,112.1c-1.273,5.835-2.463,10.55-3.221,15.522h-.135c-.778-4.684-1.811-10.606-2.925-16.255,0,0-2.672-13.736-3.607-18.474" transform="translate(-18 -73.13)" fill="#fff"/>
            <path id="Path_9385" data-name="Path 9385" d="M78.027,112.942c0-7.614-3.252-14.311-14.238-14.311a26.035,26.035,0,0,0-12.566,3l1.791,6.119a18.384,18.384,0,0,1,9.161-2.576c5.577-.013,6.489,3.158,6.489,5.189v.48c-12.155-.02-19.83,4.187-19.83,12.76,0,5.234,3.909,10.142,10.7,10.142a12.186,12.186,0,0,0,9.777-4.34h.2s1.39,5.8,9.042,3.584a48.822,48.822,0,0,1-.534-8.094m-9.073-3.905a6.194,6.194,0,0,1-.226,1.818,6.363,6.363,0,0,1-6.124,4.3c-2.515,0-4.512-1.43-4.512-4.447,0-4.615,5.081-5.89,10.862-5.859Z" transform="translate(6.837 -68.506)" fill="#fff"/>
            <path id="Path_9386" data-name="Path 9386" d="M77.437,128.113V92.888H68.358V137.61h9.079" transform="translate(22.565 -73.132)" fill="#fff"/>
            <path id="Path_9387" data-name="Path 9387" d="M139.191,92.89v32.992c0,4.543.854,7.731,2.688,9.679a10.048,10.048,0,0,0,7.386,2.8,21.483,21.483,0,0,0,6.574-.973l-.117-7.1a13.818,13.818,0,0,1-3.45.412c-3.091,0-4.127-1.981-4.127-6.065V112.021h7.9v-8.558h-7.9V92.89" transform="translate(79.622 -73.13)" fill="#fff"/>
            <path id="Path_9388" data-name="Path 9388" d="M126.208,99.389v33.594h9.363v-17.2a12.961,12.961,0,0,1,.2-2.479,7.076,7.076,0,0,1,7.41-5.9,17.1,17.1,0,0,1,2.7.238v-8.8a8.939,8.939,0,0,0-2.06-.208c-3.5,0-7.475,2.255-9.143,7.094h-.256V99.389" transform="translate(69.164 -68.506)" fill="#fff"/>
            <path id="Path_9389" data-name="Path 9389" d="M76.909,99.389v33.594h9.129v-19.7a7.814,7.814,0,0,1,.43-2.75c.758-1.982,2.6-4.306,5.547-4.306,3.683,0,5.408,3.113,5.408,7.61v19.146h9.118V113.044a9.289,9.289,0,0,1,.383-2.725,5.751,5.751,0,0,1,5.476-4.093c3.736,0,5.527,3.062,5.527,8.351v18.406h9.125V113.2c0-10.436-5.3-14.567-11.277-14.567a12.165,12.165,0,0,0-6.63,1.824,14.157,14.157,0,0,0-4.256,4.185h-.134a9.582,9.582,0,0,0-9.261-6.009c-5.68,0-8.231,2.88-9.784,5.323h-.135V99.389" transform="translate(29.453 -68.506)" fill="#fff"/>
            <path id="Path_9390" data-name="Path 9390" d="M178.059,107.886c1.8,0,3.29-.939,3.49-2.15l1.782-20.164c0-1.991-2.333-3.625-5.269-3.625S172.8,83.58,172.8,85.571l1.78,20.164c.193,1.212,1.685,2.15,3.488,2.15" transform="translate(106.696 -81.946)" fill="#ffb515"/>
            <path id="Path_9391" data-name="Path 9391" d="M180.129,106.972c.9-1.56.831-3.32-.121-4.1L163.437,91.248c-1.722-.991-4.306.206-5.776,2.75s-1.213,5.377.511,6.374l18.346,8.542c1.154.43,2.716-.39,3.616-1.948" transform="translate(93.729 -74.733)" fill="#ffb515"/>
            <path id="Path_9392" data-name="Path 9392" d="M182.032,106.965c.906,1.558,2.461,2.378,3.611,1.948L204,100.371c1.728-1,1.975-3.833.506-6.374s-4.05-3.741-5.774-2.75l-16.573,11.624c-.948.78-1.011,2.54-.117,4.1" transform="translate(113.626 -74.733)" fill="#ffb515"/>
            <path id="Path_9393" data-name="Path 9393" d="M178.059,110.26c1.8,0,3.29.937,3.49,2.149l1.782,20.164c0,1.993-2.333,3.633-5.269,3.633s-5.261-1.639-5.261-3.633l1.78-20.164c.193-1.211,1.685-2.149,3.488-2.149" transform="translate(106.696 -59.138)" fill="#ffb515"/>
            <path id="Path_9394" data-name="Path 9394" d="M182.032,107.7c.906-1.565,2.461-2.378,3.611-1.95L204,114.288c1.728,1,1.975,3.837.506,6.379s-4.05,3.739-5.774,2.746l-16.573-11.622c-.948-.784-1.011-2.542-.117-4.1" transform="translate(113.626 -62.865)" fill="#ffb515"/>
            <path id="Path_9395" data-name="Path 9395" d="M180.129,107.691c.9,1.558.831,3.315-.121,4.1L163.437,123.41c-1.722.991-4.306-.208-5.776-2.743s-1.213-5.384.511-6.383l18.346-8.537c1.154-.432,2.716.383,3.616,1.948" transform="translate(93.729 -62.865)" fill="#ffb515"/>
          </g>
        </g>
      </g>
    </g>
  </g>
</svg>
