<?xml version="1.0" encoding="utf-8"?>
<!-- Generator: Adobe Illustrator 25.1.0, SVG Export Plug-In . SVG Version: 6.00 Build 0)  -->
<svg version="1.1" id="Layer_1" xmlns="http://www.w3.org/2000/svg" xmlns:xlink="http://www.w3.org/1999/xlink" x="0px" y="0px"
	 viewBox="0 0 24 24" style="enable-background:new 0 0 24 24;" xml:space="preserve">
<style type="text/css">
	.st0{fill:#FFF200;}
</style>
<path class="st0" d="M8.5,4.8v-1c0-0.2,0.1-0.3,0.3-0.3h6.4c0.2,0,0.3,0.1,0.3,0.3v1c0,0.2-0.1,0.3-0.3,0.3H8.8
	C8.6,5.1,8.5,4.9,8.5,4.8z M14,1.8c-0.2-1.1-1.3-1.8-2.4-1.5c-0.7,0.2-1.3,0.8-1.5,1.5H14z M20.4,5.9v16c0,1.2-0.9,2.1-2.1,2.2
	c0,0,0,0-0.1,0H5.8c-1.2,0-2.1-1-2.1-2.1V6c0-1.2,0.9-2.1,2.1-2.1l0,0h1.1v1c0,1.1,0.8,1.9,1.9,2l0,0h6.4c1.1,0,1.9-0.9,1.9-1.9l0,0
	V4h1.1C19.4,3.7,20.3,4.7,20.4,5.9L20.4,5.9z M9.4,15.2C9,15,8.5,15.1,8.3,15.4l0,0l-0.8,1.2l-0.4-0.3C6.8,16,6.3,16.1,6,16.4
	s-0.2,0.8,0.1,1.1l1.1,0.9c0.1,0.1,0.3,0.2,0.5,0.2h0.1c0.2,0,0.4-0.2,0.5-0.4l1.2-2C9.8,15.9,9.7,15.4,9.4,15.2L9.4,15.2z M9.4,9.5
	C9,9.2,8.5,9.3,8.3,9.7l0,0l-0.8,1.2l-0.4-0.3c-0.3-0.3-0.8-0.3-1.1,0c0,0,0,0.1-0.1,0.1C5.6,11,5.7,11.5,6,11.8l0,0l1.1,0.9
	c0.1,0.1,0.3,0.2,0.5,0.2h0.1c0.2,0,0.4-0.2,0.5-0.4l1.2-2C9.8,10.2,9.7,9.7,9.4,9.5L9.4,9.5z M17.6,17.8c0-0.4-0.4-0.8-0.8-0.8
	h-5.2c-0.4,0-0.8,0.4-0.8,0.8l0,0c0,0.4,0.4,0.8,0.8,0.8l0,0h5.2C17.2,18.6,17.5,18.3,17.6,17.8C17.5,17.8,17.5,17.8,17.6,17.8
	L17.6,17.8z M17.6,12.1c0-0.4-0.4-0.8-0.8-0.8h-5.2c-0.4,0-0.8,0.4-0.7,0.9c0,0.4,0.3,0.7,0.7,0.7h5.2
	C17.2,12.9,17.5,12.6,17.6,12.1C17.5,12.1,17.5,12.1,17.6,12.1L17.6,12.1z"/>
</svg>
