<?xml version="1.0" encoding="utf-8"?>
<!-- Generator: Adobe Illustrator 25.1.0, SVG Export Plug-In . SVG Version: 6.00 Build 0)  -->
<svg version="1.1" id="Layer_1" xmlns="http://www.w3.org/2000/svg" xmlns:xlink="http://www.w3.org/1999/xlink" x="0px" y="0px"
	 viewBox="0 0 24 24" style="enable-background:new 0 0 24 24;" xml:space="preserve">
<style type="text/css">
	.st0{fill:#FFFFFF;}
</style>
<path class="st0" d="M5,24h14c1.2,0,2.1-0.9,2.1-2.1V7h-4.9c-1.2,0-2.1-0.9-2.1-2.1V0H5C3.8,0,2.9,0.9,2.9,2.1c0,0,0,0,0,0v19.8
	C2.9,23.1,3.8,24,5,24C5,24,5,24,5,24z M7.8,9.9h8.4c0.4,0,0.7,0.4,0.6,0.8c0,0.3-0.3,0.6-0.6,0.6H7.8c-0.4,0-0.7-0.4-0.6-0.8
	C7.2,10.2,7.5,9.9,7.8,9.9z M7.8,12.7h8.4c0.4,0,0.7,0.4,0.6,0.8c0,0.3-0.3,0.6-0.6,0.6H7.8c-0.4,0-0.7-0.4-0.6-0.8
	C7.2,13,7.5,12.7,7.8,12.7z M7.8,15.5h8.4c0.4,0,0.7,0.3,0.7,0.7c0,0.4-0.3,0.7-0.7,0.7c0,0,0,0,0,0H7.8c-0.4,0-0.7-0.3-0.7-0.7
	C7.1,15.8,7.4,15.5,7.8,15.5C7.8,15.5,7.8,15.5,7.8,15.5z M7.8,18.3h5.6c0.4,0,0.7,0.3,0.7,0.7c0,0.4-0.3,0.7-0.7,0.7H7.8
	c-0.4,0-0.7-0.3-0.7-0.7C7.1,18.6,7.4,18.3,7.8,18.3z"/>
<path class="st0" d="M16.2,5.6h4.5l-5.2-5.2v4.5C15.5,5.3,15.8,5.6,16.2,5.6C16.2,5.6,16.2,5.6,16.2,5.6z"/>
</svg>
