<?xml version="1.0" encoding="utf-8"?>
<!-- Generator: Adobe Illustrator 25.1.0, SVG Export Plug-In . SVG Version: 6.00 Build 0)  -->
<svg version="1.1" id="Layer_1" xmlns="http://www.w3.org/2000/svg" xmlns:xlink="http://www.w3.org/1999/xlink" x="0px" y="0px"
	 viewBox="0 0 24 24" style="enable-background:new 0 0 24 24;" xml:space="preserve">
<style type="text/css">
	.st0{fill:#FFF200;}
</style>
<path class="st0" d="M9.7,0h4.7v1.7H9.7V0z"/>
<path class="st0" d="M8.8,14l2.6,1.4v-3.5l-2.6-1.4C8.8,10.5,8.8,14,8.8,14z"/>
<path class="st0" d="M12,7.9L9.5,9.3l2.5,1.4l2.5-1.4L12,7.9z"/>
<path class="st0" d="M12.7,15.5l2.6-1.5v-3.5l-2.6,1.4C12.7,11.9,12.7,15.5,12.7,15.5z"/>
<path class="st0" d="M17.5,0h-1.8v2.4c0,0.4-0.3,0.7-0.7,0.7l0,0H9c-0.4,0-0.7-0.3-0.7-0.7l0,0V0H6.5C5.2,0,4.1,1.1,4.1,2.4v19.2
	c0,1.3,1.1,2.4,2.4,2.4h11c1.3,0,2.4-1.1,2.4-2.4V2.4C19.9,1.1,18.8,0,17.5,0z M14,22.1h-4c-0.4,0-0.7-0.4-0.6-0.8
	c0-0.3,0.3-0.6,0.6-0.6h4c0.4,0,0.7,0.4,0.6,0.8C14.6,21.8,14.3,22.1,14,22.1z M16.7,14.4c0,0.3-0.1,0.5-0.4,0.6l-4,2.2
	c-0.2,0.1-0.5,0.1-0.7,0l-4-2.2c-0.2-0.1-0.4-0.4-0.4-0.6V9.3c0-0.3,0.2-0.5,0.4-0.6l4-2.2c0.2-0.1,0.5-0.1,0.7,0l4,2.2
	c0.2,0.1,0.4,0.4,0.4,0.6V14.4z"/>
</svg>
