<?xml version="1.0" encoding="utf-8"?>
<!-- Generator: Adobe Illustrator 25.1.0, SVG Export Plug-In . SVG Version: 6.00 Build 0)  -->
<svg version="1.1" id="Layer_1" xmlns="http://www.w3.org/2000/svg" xmlns:xlink="http://www.w3.org/1999/xlink" x="0px" y="0px"
	 viewBox="0 0 24 24" style="enable-background:new 0 0 24 24;" xml:space="preserve">
<style type="text/css">
	.st0{fill:#FFF200;}
</style>
<path class="st0" d="M17.2,9.5l-4.4-6.6c-0.2-0.3-0.5-0.4-0.8-0.4s-0.6,0.2-0.8,0.4L6.8,9.5H2c-0.6,0-1,0.4-1,1c0,0.1,0,0.2,0,0.3
	L3.6,20c0.2,0.9,1,1.5,1.9,1.5h13c0.9,0,1.7-0.6,1.9-1.5l2.6-9.2c0-0.1,0-0.2,0-0.3c0-0.6-0.4-1-1-1H17.2z M9,9.5l3-4.4l3,4.4H9z
	 M12,17.5c-1.1,0-2-0.9-2-2s0.9-2,2-2s2,0.9,2,2S13.1,17.5,12,17.5z"/>
</svg>
