<?xml version="1.0" encoding="UTF-8"?>
<svg width="56px" height="56px" viewBox="0 0 56 56" version="1.1" xmlns="http://www.w3.org/2000/svg" xmlns:xlink="http://www.w3.org/1999/xlink">
    <title>4K Icon</title>
    <g id="Specs-&amp;-Assets" stroke="none" stroke-width="1" fill="none" fill-rule="evenodd">
        <g id="4K-Icon" transform="translate(1.000000, 1.000000)">
            <g id="flex-tv-gradient" stroke="#AA2DC1" stroke-width="1.871795">
                <g id="Group">
                    <path d="M4.70482476,53.512517 L49.7048248,53.512517 C51.8063644,53.512517 53.5125171,50.6165447 53.5125171,47.0695379 L53.5125171,7.34011152 C53.5125171,3.79310479 51.8063644,0.897132419 49.7048248,0.897132419 L4.70482476,0.897132419 C2.60328511,0.897132419 0.897132457,3.79310479 0.897132457,7.34011152 L0.897132457,47.0695379 C0.897132457,50.6165447 2.60328511,53.512517 4.70482476,53.512517 Z" id="Path"></path>
                </g>
            </g>
            <path d="M23.3925852,33.6089598 L23.3925852,31.2645417 L25.2049368,31.2645417 L25.2049368,29.7348505 L23.3925852,29.7348505 L23.3925852,22.3358006 L21.3474546,22.3358006 L16.3260769,29.4688172 L16.3260769,31.2645417 L21.43059,31.2645417 L21.43059,33.6089598 L23.3925852,33.6089598 Z M21.43059,29.7348505 L17.8391411,29.7348505 L21.4638441,24.6303374 L21.5469795,24.6469645 L21.43059,26.1267745 L21.43059,29.7348505 Z M29.1621814,33.6089598 L29.1621814,29.6018339 L30.9412788,27.8559906 L34.8320152,33.6089598 L37.3260769,33.6089598 L32.2880722,26.4925702 L36.7940104,21.8702424 L34.2999487,21.8702424 L29.1621814,27.4070595 L29.1621814,21.8702424 L27.2001862,21.8702424 L27.2001862,33.6089598 L29.1621814,33.6089598 Z" id="4K" fill="#AA2DC1" fill-rule="nonzero"></path>
        </g>
    </g>
</svg>