<?xml version="1.0" encoding="utf-8"?>
<!-- Generator: Adobe Illustrator 22.1.0, SVG Export Plug-In . SVG Version: 6.00 Build 0)  -->
<svg version="1.1" id="Layer_1" xmlns="http://www.w3.org/2000/svg" xmlns:xlink="http://www.w3.org/1999/xlink" x="0px" y="0px"
	 viewBox="0 0 289.9 46.3" style="enable-background:new 0 0 289.9 46.3;" xml:space="preserve">
<style type="text/css">
	.st0{fill:#00A3E0;}
</style>
<g>
	<g>
		<path d="M163.9793,23.2553c0-3.3306-0.5204-4.8919-1.3533-6.1408c-1.2489-1.8737-3.3827-3.1226-5.9849-3.1226
			c-3.2263,0-6.3489,1.9774-7.9102,4.9435v16.4972h-2.966V11.7021h2.8623v3.2263c1.7172-2.2376,4.7353-3.7467,8.0138-3.7467
			c3.9555,0,7.2339,1.9774,8.8995,5.0478c1.665-2.394,4.5795-5.0478,9.315-5.0478c3.9031,0,7.1816,1.9774,8.8988,4.9957
			c0.885,1.6134,1.4053,3.5386,1.4053,6.7133v12.5419c0,0-0.664,0-1.4831,0s-1.4831-0.664-1.4831-1.4831V23.2553
			c0-3.3306-0.5204-4.8919-1.3531-6.1408c-1.2489-1.8737-3.3829-3.1226-5.9849-3.1226c-3.7989,0-6.7135,2.6537-8.1704,5.5161
			c0.1559,0.9365,0.2601,2.0817,0.2601,3.3827l0,0v12.5419c0,0-0.664,0-1.4831,0s-1.4831-0.664-1.4831-1.4831V23.2553H163.9793z
			 M289.85,22.749c0-6.584-4.6657-11.561-10.9908-11.561c-6.6875,0-11.3016,5.5475-11.3016,12.3385
			c0,7.3616,5.2359,12.3385,11.8719,12.3385c4.5106,0,7.8571-2.0371,9.9603-4.7451l-0.7429-0.6642
			c-0.7261-0.6491-1.8256-0.6344-2.5388,0.0289c-1.8978,1.765-4.1111,2.581-6.6785,2.581c-5.4433,0-8.7097-4.2513-8.9167-9.2802
			h19.2853C289.85,23.3195,289.85,22.9561,289.85,22.749z M270.6682,21.09c0.8811-4.0955,3.992-7.1026,8.191-7.1026
			c4.0959,0,7.31,2.9551,7.9321,7.1026H270.6682z M214.6035,23.5266c0-6.7917-5.132-12.3385-12.1827-12.3385
			s-12.1827,5.5468-12.1827,12.3385c0,6.791,5.132,12.3385,12.1827,12.3385S214.6035,30.3176,214.6035,23.5266z M211.649,23.5266
			c0,5.2872-3.8885,9.5385-9.2282,9.5385s-9.2282-4.2513-9.2282-9.5385c0-5.2885,3.8885-9.5398,9.2282-9.5398
			S211.649,18.2381,211.649,23.5266z M220.2456,1.2098v34.2227h2.8627v-3.5575c1.7626,2.3845,4.8215,3.9918,8.5023,3.9918
			c2.2297,0,4.7181-0.5703,7.0511-2.2292c3.1109-2.1778,5.0289-5.8584,5.0289-10.11c0-3.94-1.7107-7.4138-4.4069-9.6949
			c-1.97-1.6068-4.6657-2.6438-7.5173-2.6438c-3.3691,0-6.4316,1.3617-8.5538,3.6797V0L220.2456,1.2098z M223.2125,27.8841v-9.1273
			c1.0377-1.7628,4.1479-4.7682,8.5019-4.7682c1.9699,0,4.0437,0.6738,5.7032,2.0219c2.0737,1.7106,3.3179,4.4584,3.3179,7.5172
			c0,3.2666-1.4519,6.1696-3.7332,7.7771c-1.5034,1.0368-3.3181,1.7627-5.3399,1.7627
			C228.1896,33.0674,225.079,31.098,223.2125,27.8841z M251.88,35.4325h-2.9669V11.7h2.9669V35.4325z M250.3966,7.1373
			c1.067,0,1.932-0.865,1.932-1.932s-0.865-1.932-1.932-1.932s-1.932,0.865-1.932,1.932S249.3296,7.1373,250.3966,7.1373z
			 M262.0527,35.4325h-2.9668V1.2098L262.0527,0V35.4325z"/>
		<path class="st0" d="M202.3548,1.6159c-3.6672,0-7.1139,1.4268-9.7015,4.0139c-0.3012,0.2981-0.4644,0.697-0.4644,1.123
			c0,0.426,0.1632,0.8275,0.4644,1.1256c0.3025,0.3025,0.7014,0.4695,1.1231,0.4695c0.426,0,0.8306-0.167,1.1331-0.4695
			c1.9858-1.9864,4.6302-3.0799,7.4491-3.0799c2.8158,0,5.4627,1.0934,7.4498,3.0799c0.2981,0.3025,0.7008,0.4676,1.1243,0.4676
			c0.4254,0,0.8262-0.1651,1.1249-0.4645c0.3044-0.3012,0.4689-0.7027,0.4689-1.1287c0-0.426-0.1645-0.8249-0.4651-1.123
			C209.4699,3.0427,206.0252,1.6159,202.3548,1.6159L202.3548,1.6159z M202.3548,45.436c3.6704,0,7.1151-1.4268,9.7066-4.0139
			c0.3006-0.2981,0.4651-0.697,0.4651-1.123s-0.1645-0.8275-0.4689-1.1287c-0.2987-0.2993-0.6995-0.4645-1.1249-0.4645
			c-0.4235,0-0.8262,0.1651-1.1243,0.4676c-1.9871,1.9864-4.634,3.0799-7.4498,3.0799c-2.8189,0-5.4633-1.0934-7.4491-3.0799
			c-0.3025-0.3025-0.7071-0.4695-1.1331-0.4695c-0.4216,0-0.8206,0.167-1.1231,0.4695c-0.3012,0.2981-0.4644,0.6995-0.4644,1.1256
			s0.1632,0.8249,0.4644,1.123C195.2409,44.0092,198.6876,45.436,202.3548,45.436L202.3548,45.436z"/>
	</g>
	<path d="M15.0772,23.0544L23.5464,11.7h-3.5366c-1.5822,0-2.6059,0.5584-3.4435,1.6752l-4.4673,6.0029l-4.3277-6.0029
		C6.9336,12.2584,5.9099,11.7,4.3277,11.7H0.7911l8.3762,11.3544L0,35.4325h3.3505c1.5822,0,2.6059-0.5584,3.4435-1.6752
		l5.3049-7.0267l12.4247,17.1712c0.7911,1.1168,1.8614,1.6752,3.4436,1.6752h3.6297L15.0772,23.0544z M82.8778,35.4325h4.793V11.7
		h-4.793V35.4325z M44.8592,35.4325h4.793V11.7h-4.793V35.4325z M117.546,43.8087L134.9033,11.7h-2.6059
		c-1.5822,0-2.7921,0.4653-3.4435,1.6752l-6.8406,12.7039l-5.9099-12.7039c-0.6049-1.2564-1.8614-1.6752-3.4436-1.6752h-2.5128
		l9.1207,19.3583l-7.9574,14.5187h2.6059C115.545,45.577,116.848,45.0652,117.546,43.8087z M55.376,11.7v23.7326h4.7931v-16.287
		c1.4891-2.0941,3.6297-3.397,6.2821-3.397c3.5366,0,5.9564,2.2336,5.9564,6.701v10.7029c0,1.3495,0.9307,2.2802,2.2337,2.2802
		h2.5594V21.6118c0-6.1425-3.9089-10.4237-9.5861-10.4237c-3.0247,0-5.5376,1.0703-7.4455,2.8386V11.7H55.376z M96.559,27.0098
		c0,5.1653,3.1643,8.8415,8.8415,8.8415c1.396,0,2.5594-0.1861,3.4901-0.4653l-0.9772-4.1881
		c-0.6049,0.1396-1.3495,0.2327-2.1871,0.2327c-2.3267,0-4.3742-1.2564-4.3742-4.5138V15.9811h6.701L106.0985,11.7h-4.7465V2.1604
		l-4.793,2.0941V11.7h-5.0723v4.2812h5.0723V27.0098z M30.1078,15.9811v19.4514h4.793V15.9811h6.1425V11.7h-6.1425V9.9317
		c0-4.0485,2.4198-5.398,4.793-5.398c0.605,0,1.1634,0.0931,1.6287,0.2327l0.9772-4.2346
		c-0.6049-0.2327-1.5822-0.4653-2.9782-0.4653c-5.9564,0-9.2138,4.4208-9.2138,9.7722V11.7h-2.5129l-3.0247,4.2812H30.1078z"/>
</g>
</svg>
