<?xml version="1.0" encoding="utf-8"?>
<!-- Generator: Adobe Illustrator 23.0.6, SVG Export Plug-In . SVG Version: 6.00 Build 0)  -->
<svg version="1.1" id="Layer_1" xmlns="http://www.w3.org/2000/svg" xmlns:xlink="http://www.w3.org/1999/xlink" x="0px" y="0px"
	 width="129.6297302px" height="26px" viewBox="0 0 129.6297302 26" style="enable-background:new 0 0 129.6297302 26;"
	 xml:space="preserve">
<g>
	<g>
		<path d="M81.9084473,9.2134171l1.3097992-2.4283133h1.8313751V5.7294407c0-3.0357399,1.8474045-5.5429287,5.2259521-5.5429287
			c0.7917404,0,1.3461075,0.1319241,1.6889114,0.2638933l-0.5536346,2.4017663
			c-0.263916-0.0788755-0.5809097-0.1319242-0.9244385-0.1319242c-1.3453751,0-2.7180252,0.7659431-2.7180252,3.0622871v1.0025692
			h4.0043945v2.4283133h-4.0043945v11.0320454h-2.7187653V9.2134171H81.9084473z M120.260025,13.2252064l4.8035431-6.4401212
			h-2.0059052c-0.8971558,0-1.4780655,0.316987-1.9528122,0.9502411l-2.5337372,3.4043355l-2.454834-3.4043355
			c-0.474762-0.6332541-1.0556641-0.9502411-1.9528198-0.9502411h-2.0066376l4.7511902,6.4401212l-5.1994019,7.020237h1.9004822
			c0.8971558,0,1.4780579-0.3162231,1.9528046-0.9494762l3.0092163-3.985261l7.0468216,9.7390337
			c0.4489441,0.633255,1.0556641,0.9502411,1.9528198,0.9502411h2.0589752L120.260025,13.2252064z M93.9371796,20.2454624h2.724823
			V0.0301094l-2.724823,1.0880338V20.2454624z M111.3475266,18.0914612l-0.6023636-0.7730865
			c-0.4875412-0.6013298-1.3480377-0.5727634-1.8930511-0.2004433c-0.9464722,0.6585827-1.8357086,1.0307827-3.0976639,1.0307827
			c-2.3521042,0-4.2164307-1.8038692-4.3598633-4.0659962h10.383255c0.0286179-0.2576952,0.0286179-0.4581385,0.0286179-0.5726433
			c0-3.9800568-2.7535629-7.0152707-6.4823227-7.0152707c-3.8148499,0-6.5684128,2.9778409-6.5684128,7.0152707
			c0,4.0373096,3.0404358,7.0152702,6.969986,7.0152702C108.4219208,20.5253448,110.3149719,19.3513718,111.3475266,18.0914612z
			 M105.4102173,8.8714361c1.6061859,0,3.1551361,1.231225,3.5567169,2.9205885h-7.3428268
			C102.0830307,10.0454092,103.6605988,8.8714361,105.4102173,8.8714361z"/>
		<path d="M17.9218578,26h-2.0589743c-0.8971643,0-1.5038719-0.3169861-1.9528217-0.9502411l-7.0475483-9.7390347
			l-3.0084791,3.9852619c-0.4754918,0.6332531-1.0556631,0.9494762-1.953564,0.9494762H0l5.2001433-7.020237L0.4489448,6.7851038
			h2.005904c0.8971584,0,1.4780612,0.316987,1.9535527,0.9502411l2.4541121,3.404336l2.5337238-3.404336
			c0.4754915-0.6332541,1.0556583-0.9502411,1.9535589-0.9502411h2.0058985l-4.8035383,6.4401217L17.9218578,26z
			 M47.007679,20.2454624h2.7181587V6.7843843H47.007679V20.2454624z M25.4441547,20.2454624h2.7180233V6.7843843h-2.7180233
			V20.2454624z M66.6715851,24.9974308l9.8444519-18.212326h-1.4780731c-0.8971558,0-1.5834808,0.2638936-1.9535522,0.9502411
			l-3.879837,7.2052994l-3.352005-7.2052994c-0.3427963-0.7128496-1.0556564-0.9502411-1.9528236-0.9502411h-1.4249916
			l5.1728745,10.9797163L63.1345406,26h1.4780693C65.5363083,26,66.2749786,25.7095604,66.6715851,24.9974308 M31.4087734,6.7851038
			v13.4603586h2.7187634v-9.237751c0.8448181-1.1868668,2.058239-1.9262629,3.5628471-1.9262629
			c2.0058937,0,3.3792839,1.2672272,3.3792839,3.8002424v6.0707607c0,0.7651787,0.527092,1.2930107,1.2664909,1.2930107h1.4515343
			V12.406908c0-3.4839306-2.216732-5.9122443-5.4367867-5.9122443c-1.7161865,0-3.1411743,0.6074271-4.2233696,1.6099963V6.7851038
			H31.4087734z M54.7674179,15.4684753c0,2.9303188,1.7950592,5.0150967,5.0143776,5.0150967
			c0.7924805,0,1.4522667-0.1054211,1.9800949-0.2638931l-0.5543671-2.3759842
			c-0.3427925,0.0796413-0.7652054,0.1319695-1.2406921,0.1319695c-1.3195724,0-2.480648-0.7121296-2.480648-2.5595169V9.2134171
			h3.8002205l-1.1079979-2.4283133h-2.6922226V1.3740993l-2.7187653,1.1876323v4.2233725h-2.8765221v2.4283133h2.8765221V15.4684753
			z M17.077034,9.2134171v11.0320454h2.7187653V9.2134171h3.4839649V6.7851038h-3.4839649V5.7825346
			c0-2.296344,1.3726501-3.0622871,2.7180214-3.0622871c0.3435345,0,0.6605263,0.0530486,0.9244423,0.1319242l0.5536308-2.4017663
			c-0.3427982-0.1319692-0.8971653-0.2638933-1.6889057-0.2638933c-3.3785496,0-5.2259541,2.5071888-5.2259541,5.5429287v1.0556631
			h-1.4249897l-1.7161837,2.4283133H17.077034z"/>
	</g>
</g>
</svg>
