<?xml version="1.0" encoding="UTF-8"?>
<svg width="21px" height="60px" viewBox="0 0 21 60" version="1.1" xmlns="http://www.w3.org/2000/svg" xmlns:xlink="http://www.w3.org/1999/xlink">
    <title>Tile 4</title>
    <g id="Design" stroke="none" stroke-width="1" fill="none" fill-rule="evenodd">
        <g id="Flex-Remote" transform="translate(3.000000, 3.000000)">
            <path d="M12.7448483,-1.08 C12.9132709,-1.08 14.2114379,-0.815092939 15.108586,-0.178897001 C15.7957984,0.308426879 16.2,0.963916501 16.2,1.68429471 L16.2,1.68429471 L16.2,4.03734728 C15.8094929,7.56551135 15.6149496,18.8034154 15.6078775,37.7498836 L15.6078775,37.7498836 L15.6078763,39.8822229 C15.6092663,43.7286393 15.6180803,47.8736175 15.6343249,52.3211037 C15.6343249,52.7473093 15.3391424,53.3828423 14.7319284,53.9462369 C13.9674668,54.6555314 12.9405319,55.08 12.7448483,55.08 L12.7448483,55.08 L2.37515173,55.08 C2.1820903,55.08 1.13043249,54.6516397 0.349465258,53.955384 C-0.286728973,53.3881977 -0.588011254,52.7469862 -0.587996126,52.3153874 C-0.551248754,45.3726552 -0.533932577,39.158802 -0.536051513,33.6741416 L-0.536051513,33.6741416 L-0.536933241,32.3716345 C-0.552233286,16.6621011 -0.73058794,7.21695856 -1.08,4.03691492 L-1.08,4.03691492 L-1.08,1.68429471 C-1.08,0.963048294 -0.675367825,0.30718936 0.011937037,-0.180200111 C0.907491214,-0.815265713 2.20218294,-1.08 2.37515173,-1.08 L2.37515173,-1.08 Z" id="Stroke-3" stroke="#AA2DC1" stroke-width="2.16" stroke-linecap="round" stroke-linejoin="round"></path>
            <path d="M10.5948,11.61 L11.07,18.4193999 L4.5252,18.63 L4.05,11.8206001 L10.5948,11.61 Z" id="Stroke-5" stroke="#AA2DC1" stroke-width="1.62" transform="translate(7.560000, 15.120000) rotate(-45.000000) translate(-7.560000, -15.120000) "></path>
            <rect id="Rectangle-4" fill="#AA2DC1" x="4.32" y="3.24" width="6.48" height="1.62"></rect>
            <path d="M4.0986,24.84 L4.5414,24.84 C5.01660001,24.84 5.4,25.1478 5.4,25.5204 L5.4,26.3196 C5.4,26.6976 5.01660001,27 4.5414,27 L4.0986,27 C3.6234,27 3.24,26.6976 3.24,26.3196 L3.24,25.5204 C3.24,25.1478 3.6234,24.84 4.0986,24.84" id="Fill-7" fill="#AA2DC1" fill-rule="nonzero"></path>
            <path d="M7.78140001,24.84 C8.25660001,24.84 8.64,25.1478 8.64,25.5204 L8.64,26.3196 C8.64,26.6976 8.25660001,27 7.78140001,27 L7.33860001,27 C6.86339999,27 6.48,26.6976 6.48,26.3196 L6.48,25.5204 C6.48,25.1478 6.86339999,24.84 7.33860001,24.84 L7.78140001,24.84 Z" id="Fill-9" fill="#AA2DC1" fill-rule="nonzero"></path>
            <path d="M10.5764588,24.84 L11.0235411,24.84 C11.4921696,24.84 11.88,25.1478 11.88,25.5204 L11.88,26.3196 C11.88,26.6976 11.4921696,27 11.0235411,27 L10.5764588,27 C10.1078304,27 9.72,26.6976 9.72,26.3196 L9.72,25.5204 C9.72,25.1478 10.1078304,24.84 10.5764588,24.84" id="Fill-11" fill="#AA2DC1" fill-rule="nonzero"></path>
        </g>
    </g>
</svg>