<?xml version="1.0" encoding="UTF-8"?>
<svg width="56px" height="54px" viewBox="0 0 56 54" version="1.1" xmlns="http://www.w3.org/2000/svg" xmlns:xlink="http://www.w3.org/1999/xlink">
    <title>Tile 2</title>
    <g id="Design" stroke="none" stroke-width="1" fill="none" fill-rule="evenodd">
        <g id="Tile-2">
            <path d="M32.5333333,1.2 C33.5274459,1.2 34.4274459,1.60294373 35.0789177,2.25441559 C35.7303896,2.90588745 36.1333333,3.80588745 36.1333333,4.8 L36.1333333,4.8 L36.1333333,32.5333333 C36.1333333,33.5274459 35.7303896,34.4274459 35.0789177,35.0789177 C34.4274459,35.7303896 33.5274459,36.1333333 32.5333333,36.1333333 L32.5333333,36.1333333 L4.8,36.1333333 C3.80588745,36.1333333 2.90588745,35.7303896 2.25441559,35.0789177 C1.60294373,34.4274459 1.2,33.5274459 1.2,32.5333333 L1.2,32.5333333 L1.2,4.8 C1.2,3.80588745 1.60294373,2.90588745 2.25441559,2.25441559 C2.90588745,1.60294373 3.80588745,1.2 4.8,1.2 L4.8,1.2 Z" id="Rectangle" stroke="#AA2DC1" stroke-width="2.4"></path>
            <rect id="Rectangle" fill="#FFFFFF" x="7.2" y="6" width="46.8" height="46.8"></rect>
            <g id="flex-tv-gradient" transform="translate(7.200000, 6.000000)" stroke="#AA2DC1" stroke-width="2.246154">
                <g id="Group">
                    <path d="M4.07751479,46.3775148 L43.0775148,46.3775148 C44.8988491,46.3775148 46.3775148,43.867672 46.3775148,40.7935995 L46.3775148,6.36142998 C46.3775148,3.28735748 44.8988491,0.777514763 43.0775148,0.777514763 L4.07751479,0.777514763 C2.25618043,0.777514763 0.777514796,3.28735748 0.777514796,6.36142998 L0.777514796,40.7935995 C0.777514796,43.867672 2.25618043,46.3775148 4.07751479,46.3775148 Z" id="Path"></path>
                </g>
            </g>
        </g>
    </g>
</svg>